HIERARCHY
ROOT hip
{
  OFFSET 0 0 0
  CHANNELS 6 Xposition Yposition Zposition Zrotation Yrotation Xrotation
  JOINT abdomen
  {
    OFFSET 0 20.6881 -0.73152
    CHANNELS 3 Zrotation Xrotation Yrotation
    JOINT chest
    {
      OFFSET 0 11.7043 -0.48768
      CHANNELS 3 Zrotation Xrotation Yrotation
      JOINT neck
      {
        OFFSET 0 22.1894 -2.19456
        CHANNELS 3 Zrotation Xrotation Yrotation
        JOINT head
        {
          OFFSET -0.24384 7.07133 1.2192
          CHANNELS 3 Zrotation Xrotation Yrotation
          JOINT leftEye
          {
            OFFSET 4.14528 8.04674 8.04672
            CHANNELS 3 Zrotation Xrotation Yrotation
            End Site
            {
              OFFSET 1 0 0
            }
          }
          JOINT rightEye
          {
            OFFSET -3.6576 8.04674 8.04672
            CHANNELS 3 Zrotation Xrotation Yrotation
            End Site
            {
              OFFSET 1 0 0
            }
          }
        }
      }
      JOINT rCollar
      {
        OFFSET -2.68224 19.2634 -4.8768
        CHANNELS 3 Zrotation Xrotation Yrotation
        JOINT rShldr
        {
          OFFSET -8.77824 -1.95073 1.46304
          CHANNELS 3 Zrotation Xrotation Yrotation
          JOINT rForeArm
          {
            OFFSET -28.1742 -1.7115 0.48768
            CHANNELS 3 Zrotation Xrotation Yrotation
            JOINT rHand
            {
              OFFSET -22.5879 0.773209 7.07136
              CHANNELS 3 Zrotation Xrotation Yrotation
              JOINT rThumb1
              {
                OFFSET -1.2192 -0.487915 3.41376
                CHANNELS 3 Zrotation Xrotation Yrotation
                JOINT rThumb2
                {
                  OFFSET -3.37035 -0.52449 3.41376
                  CHANNELS 3 Zrotation Xrotation Yrotation
                  End Site
                  {
                    OFFSET -1.78271 -1.18214 1.43049
                  }
                }
              }
              JOINT rIndex1
              {
                OFFSET -7.75947 0.938293 5.60832
                CHANNELS 3 Zrotation Xrotation Yrotation
                JOINT rIndex2
                {
                  OFFSET -2.54057 -0.884171 1.56538
                  CHANNELS 3 Zrotation Xrotation Yrotation
                  End Site
                  {
                    OFFSET -1.62519 -0.234802 1.16502
                  }
                }
              }
              JOINT rMid1
              {
                OFFSET -8.24714 1.18213 3.41376
                CHANNELS 3 Zrotation Xrotation Yrotation
                JOINT rMid2
                {
                  OFFSET -3.10165 -0.590103 1.0647
                  CHANNELS 3 Zrotation Xrotation Yrotation
                  End Site
                  {
                    OFFSET -2.48547 -0.328903 0.83742
                  }
                }
              }
              JOINT rRing1
              {
                OFFSET -8.82822 0.546677 1.51678
                CHANNELS 3 Zrotation Xrotation Yrotation
                JOINT rRing2
                {
                  OFFSET -2.60934 -0.819778 -0.0198488
                  CHANNELS 3 Zrotation Xrotation Yrotation
                  End Site
                  {
                    OFFSET -2.33842 -0.294052 0.168128
                  }
                }
              }
              JOINT rPinky1
              {
                OFFSET -8.27202 -0.0477905 -0.4584
                CHANNELS 3 Zrotation Xrotation Yrotation
                JOINT rPinky2
                {
                  OFFSET -1.82734 -0.647385 -0.700984
                  CHANNELS 3 Zrotation Xrotation Yrotation
                  End Site
                  {
                    OFFSET -1.69225 -0.51767 -0.607171
                  }
                }
              }
            }
          }
        }
      }
      JOINT lCollar
      {
        OFFSET 2.68224 19.2634 -4.8768
        CHANNELS 3 Zrotation Xrotation Yrotation
        JOINT lShldr
        {
          OFFSET 8.77824 -1.95073 1.46304
          CHANNELS 3 Zrotation Xrotation Yrotation
          JOINT lForeArm
          {
            OFFSET 28.1742 -1.7115 0.48768
            CHANNELS 3 Zrotation Xrotation Yrotation
            JOINT lHand
            {
              OFFSET 22.5879 0.773209 7.07136
              CHANNELS 3 Zrotation Xrotation Yrotation
              JOINT lThumb1
              {
                OFFSET 1.2192 -0.487915 3.41376
                CHANNELS 3 Zrotation Xrotation Yrotation
                JOINT lThumb2
                {
                  OFFSET 3.37035 -0.52449 3.41376
                  CHANNELS 3 Zrotation Xrotation Yrotation
                  End Site
                  {
                    OFFSET 1.78271 -1.18214 1.43049
                  }
                }
              }
              JOINT lIndex1
              {
                OFFSET 7.75947 0.938293 5.60832
                CHANNELS 3 Zrotation Xrotation Yrotation
                JOINT lIndex2
                {
                  OFFSET 2.54057 -0.884171 1.56538
                  CHANNELS 3 Zrotation Xrotation Yrotation
                  End Site
                  {
                    OFFSET 1.62519 -0.234802 1.16502
                  }
                }
              }
              JOINT lMid1
              {
                OFFSET 8.24714 1.18213 3.41376
                CHANNELS 3 Zrotation Xrotation Yrotation
                JOINT lMid2
                {
                  OFFSET 3.10165 -0.590103 1.0647
                  CHANNELS 3 Zrotation Xrotation Yrotation
                  End Site
                  {
                    OFFSET 2.48547 -0.328903 0.83742
                  }
                }
              }
              JOINT lRing1
              {
                OFFSET 8.82822 0.546677 1.51678
                CHANNELS 3 Zrotation Xrotation Yrotation
                JOINT lRing2
                {
                  OFFSET 2.60934 -0.819778 -0.0198488
                  CHANNELS 3 Zrotation Xrotation Yrotation
                  End Site
                  {
                    OFFSET 2.33842 -0.294052 0.168128
                  }
                }
              }
              JOINT lPinky1
              {
                OFFSET 8.27202 -0.0477905 -0.4584
                CHANNELS 3 Zrotation Xrotation Yrotation
                JOINT lPinky2
                {
                  OFFSET 1.82734 -0.647385 -0.700984
                  CHANNELS 3 Zrotation Xrotation Yrotation
                  End Site
                  {
                    OFFSET 1.69225 -0.51767 -0.607171
                  }
                }
              }
            }
          }
        }
      }
    }
  }
  JOINT rButtock
  {
    OFFSET -8.77824 4.35084 1.2192
    CHANNELS 3 Zrotation Xrotation Yrotation
    JOINT rThigh
    {
      OFFSET 0 -1.70687 -2.19456
      CHANNELS 3 Zrotation Xrotation Yrotation
      JOINT rShin
      {
        OFFSET 0 -36.8199 0.73152
        CHANNELS 3 Zrotation Xrotation Yrotation
        JOINT rFoot
        {
          OFFSET 0.73152 -45.1104 -5.12064
          CHANNELS 3 Zrotation Xrotation Yrotation
          End Site
          {
            OFFSET -1.1221 -3.69964 12.103
          }
        }
      }
    }
  }
  JOINT lButtock
  {
    OFFSET 8.77824 4.35084 1.2192
    CHANNELS 3 Zrotation Xrotation Yrotation
    JOINT lThigh
    {
      OFFSET 0 -1.70687 -2.19456
      CHANNELS 3 Zrotation Xrotation Yrotation
      JOINT lShin
      {
        OFFSET 0 -36.8199 0.73152
        CHANNELS 3 Zrotation Xrotation Yrotation
        JOINT lFoot
        {
          OFFSET -0.73152 -45.1104 -5.12064
          CHANNELS 3 Zrotation Xrotation Yrotation
          End Site
          {
            OFFSET 1.1221 -3.69964 12.103
          }
        }
      }
    }
  }
}
MOTION
Frames:	9
Frame Time:	0.03333
0.0 0.0 0.0 0.0 0.0 0.0 0.0 0.0 0.0 0.0 0.0 0.0 0.0 0.0 0.0 0.0 0.0 0.0 0.0 0.0 0.0 0.0 0.0 0.0 0.0 0.0 0.0 0.0 0.0 0.0 0.0 0.0 0.0 0.0 0.0 0.0 0.0 0.0 0.0 0.0 0.0 0.0 0.0 0.0 0.0 0.0 0.0 0.0 0.0 0.0 0.0 0.0 0.0 0.0 0.0 0.0 0.0 0.0 0.0 0.0 0.0 0.0 0.0 0.0 0.0 0.0 0.0 0.0 0.0 0.0 0.0 0.0 0.0 0.0 0.0 0.0 0.0 0.0 0.0 0.0 0.0 0.0 0.0 0.0 0.0 0.0 0.0 0.0 0.0 0.0 0.0 0.0 0.0 0.0 0.0 0.0 0.0 0.0 0.0 0.0 0.0 0.0 0.0 0.0 0.0 0.0 0.0 0.0 0.0 0.0 0.0 0.0 0.0 0.0 0.0 0.0 0.0 0.0 0.0 0.0 0.0 0.0 0.0 0.0 0.0 0.0 0.0 0.0 0.0 0.0 0.0 0.0
0.0018 72.5218 -0.5718 139.710032 -86.286742 -130.406709 -24.395145 -2.148443 -89.595835 9.411613 -8.18468 76.95023 7.555039 21.67935 -169.925527 -2.288689 20.47827 176.59296 -0.003907 -0.0 0.001135 -0.003907 -0.0 0.001135 3.205783 -26.010367 -5.106175 -73.05224 47.556511 57.507481 94.856614 5.97041 152.92482 -152.714113 58.112038 128.236118 -121.364472 30.329406 71.957809 24.867358 -38.455926 26.935824 -145.521529 -6.585314 118.766072 -168.911636 -28.309522 118.626398 -164.721872 -19.553488 144.756869 -172.354691 -31.353358 143.660978 -145.062169 -3.309829 -178.087328 -155.739624 7.612001 179.844911 -146.184111 15.333204 -142.709841 -148.325837 13.779456 -142.16774 44.915012 -86.288165 66.523022 5.626085 -57.889284 85.380018 108.983888 -35.103117 142.026097 -171.709123 -71.153189 -149.042206 89.135848 38.427281 -50.299373 162.991868 -35.687155 -79.871426 0.327626 0.53007 -0.185069 -178.495427 -37.974352 -104.762977 -173.12327 -66.297748 -137.614268 7.613144 26.107712 -6.323759 145.120147 0.226723 179.199311 156.963181 56.720234 -173.826861 75.777926 -51.667236 74.249948 -4.628017 3.276394 -0.064592 -179.999871 75.748465 -0.000133 -175.670794 24.803052 169.770502 29.792547 -61.942397 -125.013485 -92.796095 15.978818 1.519502 5.9e-05 -0.001619 5.9e-05 26.065121 -4.999562 2.995095 8.601783 24.690676 112.221446 -59.511798 -19.332833 -111.851737
0.3305 73.1431 -0.8675 142.830778 -86.737828 -133.690067 -22.21822 -1.239669 -91.698733 9.706406 -7.998673 81.825323 -0.04071 17.477128 -116.680222 9.769575 16.514893 122.556924 -0.001906 0.0 -0.001928 0.003549 -0.0 -0.002185 -3.76698 17.921074 4.641131 162.474232 0.424387 175.082553 -52.870071 -28.207607 -150.814023 154.318465 -57.937303 131.660194 -171.706183 -9.388333 89.949178 -17.504592 -42.412164 3.691401 -126.251567 20.411086 106.296342 -167.399315 -19.389636 117.716029 -0.57087 1.648445 0.321532 9.84925 -20.361099 -1.548771 -74.840454 72.960546 92.828142 -81.20166 83.255316 90.135317 9.966093 32.461795 8.627598 -140.988143 -7.905954 -137.684971 0.049023 0.292383 -0.065105 -21.43038 26.094298 -70.790304 -72.939524 -27.985415 -79.222783 35.933924 40.727676 -16.125667 6.035341 5.832665 -1.226308 114.23777 -5.672923 -102.973919 -60.461677 -70.523642 -15.710363 -140.767842 -64.487709 -77.0308 -2.099817 -6.305524 1.080677 0.666592 10.908694 -1.799359 0.013679 -1.323212 0.415507 55.427532 -86.720735 77.050426 74.132233 -51.745575 72.618571 22.555052 -39.82827 24.603307 0.000114 -0.000379 -0.0 6.51882 -47.128195 -0.0 -20.126604 68.041632 130.216063 -4.13163 59.548258 -106.175169 0.000114 -0.000379 -0.0 28.39505 -10.383379 6.167318 3.434292 34.804165 140.679389 142.319846 67.94398 116.741591
0.8075000000000001 73.5851 -1.1216 144.650775 -87.864501 -135.689862 -19.59926 0.40473 -89.802247 9.858748 -7.909312 82.807451 18.965844 11.696518 104.657118 -7.063012 13.486004 -99.16727 -0.000148 0.0 -0.00038 -0.000148 0.0 -0.00038 0.023438 -0.138601 -0.030995 -23.077391 15.490845 13.024556 40.447608 -25.262834 113.883047 -22.401619 35.576146 6.085534 115.061423 -50.178237 56.085891 -12.77857 -80.444413 -40.250016 -173.60005 -52.692819 119.893675 7.235953 14.035979 -6.244428 -8.416003 20.880419 5.645924 -85.878292 64.234526 77.806843 -145.122337 1.97606 -179.747557 11.723012 28.351774 -5.775613 -25.538698 -38.087346 -24.598332 -145.586092 8.388831 -142.57599 143.620182 38.233009 -148.079697 78.922293 -69.987456 32.182669 -58.098736 -44.6256 -103.32466 21.398594 25.919915 -4.205108 174.615175 -12.272113 -89.846234 46.170225 -16.031568 -6.633744 50.386744 40.825129 -40.025831 162.959909 -8.571319 -112.312898 8.416275 20.880428 -5.645594 -7.102907 -11.618626 1.16485 70.378626 -72.130823 87.279576 -13.752697 -25.493748 7.994243 157.324824 57.246371 150.515273 84.569255 -52.495774 83.241398 -0.004333 0.000293 -0.002167 4.743946 -46.759503 63.670773 56.508102 43.1941 -139.989561 97.724972 45.239912 5.999137 -179.97326 75.749348 -0.022001 -134.989413 43.223823 124.395429 30.549392 -38.107183 70.074952 147.390421 9.789757 -168.942764
1.3176999999999999 73.83 -1.2738 146.160779 -89.326147 -136.978488 -19.101996 4.070548 -0.0 -4.853263 -12.27739 -6.054079 -1.296368 10.642074 -77.583925 9.885311 4.725286 84.4309 0.003871 0.0 0.001709 -0.001583 -0.0 0.001384 -129.706721 55.102208 133.552916 19.030348 14.31522 -12.393103 -147.63542 -17.796399 -69.773469 -0.10113 -30.466981 -4.134978 81.27595 -49.995184 32.240959 -98.371199 -86.324499 -139.337757 10.335397 -18.283883 -4.601026 97.448568 -61.736435 42.432836 -0.970541 2.779315 0.554115 86.240697 -78.350685 57.491817 -145.123748 1.973578 -179.748598 -141.974588 -56.551119 -163.979443 -124.851461 -29.039883 -122.623236 -80.129512 -52.880742 -80.410002 159.219464 -48.02826 -170.416586 -85.049613 43.388835 65.864146 87.782788 8.893087 -154.271347 -36.026565 -71.677077 -20.940243 -88.928252 -50.831934 -37.599678 15.644754 -43.214001 30.244918 -37.215099 -57.918051 0.644135 -9.86798 10.459422 1.986396 36.036096 51.723914 -29.83015 -167.990289 -64.089605 -133.003267 145.119108 0.186793 179.18375 141.818786 -56.540973 163.970246 146.185198 15.332609 142.710626 44.522755 -49.387144 45.013668 -179.993248 75.749342 -0.006966 -176.185654 28.087562 113.309624 60.71956 -12.493041 -62.917044 95.151294 -55.935086 12.132831 0.003316 -0.000692 0.001658 38.669651 -26.695708 -180.0 41.301091 -41.097522 135.103483 150.00729 -25.478126 -109.219648
1.7732 73.7572 -1.3484 -51.682742 -89.465199 61.219715 -13.833038 2.429827 -99.769178 10.494341 -4.593193 96.890341 18.459274 9.200733 92.616386 -5.465743 15.122626 -86.158074 0.000451 -0.0 -0.002057 0.000451 -0.0 -0.002057 -44.915833 -86.288216 -66.523287 9.999146 1.586866 25.333162 -35.015565 63.585576 141.765832 -4.09941 -18.427364 -4.201599 2.435698 -2.419016 -0.323679 -86.781494 23.276026 78.900145 -4.708212 7.223293 2.856203 10.01964 1.055925 -0.381408 -161.518719 -9.304027 143.62639 -163.371854 -4.998573 142.987643 -145.122536 0.809989 -179.38189 -67.081361 87.686442 80.283116 -152.347883 37.911616 -147.686636 -94.495318 -50.205941 -93.135425 0.049063 0.292404 -0.064882 101.698309 20.572541 -119.100919 161.378635 -79.815785 82.752656 7.482989 9.970666 1.109011 173.976792 -11.643166 -89.882138 159.243845 0.575381 -84.475974 27.609513 30.765895 -20.254934 -168.501676 -44.34124 -102.245485 8.417422 20.88024 -5.645555 4.648341 20.810351 -4.272671 0.008626 -0.8716 0.275863 141.761039 -80.970256 164.271532 75.779063 -51.666831 74.249595 -67.324289 84.913376 28.174499 0.00238 0.001988 0.00119 7.710173 -46.087912 5.67698 -47.296177 63.995033 -104.47836 -109.910252 45.274887 -149.537097 0.002448 0.000174 0.001224 43.426693 -30.934201 26.777241 -40.149803 61.358339 -62.808822 84.291333 81.704592 -7.283077
2.1629 73.2268 -1.3944 -61.983878 -88.700667 71.574646 -11.114952 3.750833 -108.416546 10.821103 -2.28755 107.674776 -2.265186 11.7029 -86.492844 7.721914 3.827678 94.646968 0.000658 -0.0 -0.000597 0.000658 -0.0 -0.000597 4.249723 -45.272843 -8.756096 -119.494557 62.915371 121.254175 15.226974 -54.582499 119.261885 -11.466166 8.073294 -1.406092 81.971921 -50.090647 32.723153 -31.590615 5.783657 -8.177017 -108.427665 34.16126 91.743129 94.570205 -67.575711 45.977592 2.101204 -6.305315 -1.080408 -17.96998 42.269656 14.39733 -145.120929 1.976465 -179.748747 11.452144 58.599234 -1.694523 -149.547766 27.15267 -145.548653 -25.920658 -40.226922 -26.9468 159.220367 -48.028522 -170.415156 55.767985 -57.707045 89.45149 -3.211441 62.918634 125.856533 -172.086048 -18.491935 -143.306801 -4.530695 -4.514159 0.521964 9.054834 9.455338 -4.881102 -88.792419 -75.498822 -40.051028 -65.913861 -58.721835 -13.209562 8.306047 20.65239 -5.561769 171.006666 -28.570057 -144.222557 0.000526 0.02257 -0.007466 75.667507 78.820599 -89.067978 14.103467 -26.510844 13.433307 -39.266389 81.485626 2.032089 -179.99486 75.750404 -0.005303 -171.8354 25.592946 -180.0 24.421819 -66.39447 -81.117177 -35.549519 28.389272 -54.128163 179.972178 75.748562 0.022892 -138.278747 22.080032 -67.140322 -84.293893 30.263748 -139.190446 -56.933974 -15.709098 -166.824096
2.4743999999999997 71.9494 -1.4315 -74.172999 -88.1163 83.612898 -8.518752 6.157829 -98.913076 11.099428 -3.56185 101.167991 -2.855376 8.163389 -70.252364 3.983274 2.559407 78.217601 0.00144 -0.0 -0.003631 0.00144 -0.0 -0.003631 -158.92123 -37.397168 168.281287 21.385703 -19.672873 11.631256 -87.47214 34.852408 -111.331392 52.075105 -75.692635 35.766149 -3.451363 3.370537 0.629383 -128.781944 -25.943813 113.169052 179.293336 -59.502008 116.318143 -12.992188 39.4328 7.556259 1.281196 -3.803142 -0.679642 -42.079252 58.557873 36.097036 -0.000852 0.063731 0.020356 -154.304135 -64.49804 -178.4275 -155.357952 49.793303 -149.600087 -162.078563 54.190307 -147.126877 155.613545 -4.236094 -161.992095 6.526275 -11.442131 29.452692 -6.719756 40.062811 135.369367 -173.089865 -15.552004 -143.602502 -175.880549 -21.257651 -88.494276 -4.632514 -63.479625 -3.213908 46.209473 39.652324 -36.318429 167.653088 -16.065486 -112.071665 89.835893 60.703175 -81.262811 144.870725 36.169482 -131.996471 145.119506 0.186064 179.185381 -11.199792 13.760772 7.378984 144.911023 11.240453 141.588573 152.149242 25.868987 144.491821 179.99952 75.75131 0.0 -168.5406 24.648573 -12.961733 -60.478709 63.437469 172.973324 -24.264588 7.364525 -104.137998 -179.989868 75.749498 -0.008336 -140.150784 16.220275 -180.0 83.515449 -81.134961 173.593547 125.997395 51.905558 -52.567932
2.7281 69.554 -1.4823 -75.440648 -87.45588 84.829969 -9.856268 10.426443 29.607214 -7.971434 -10.623653 -25.98032 -1.52443 3.096465 -40.114518 -0.079281 2.943896 47.582679 -0.002391 0.0 -0.002746 0.003272 0.0 0.003036 -157.323718 -17.489212 164.607895 9.003734 27.0169 12.087899 6.490946 -28.995202 -143.180292 -178.470327 -4.235447 143.097895 -7.758373 7.439089 1.682571 -161.336566 -66.770291 110.051435 -153.452985 -21.067807 121.744525 -85.597667 56.807195 67.677544 -0.398012 1.151599 0.222655 -0.483542 10.500163 1.715851 -145.119786 0.185257 -179.187171 11.904158 29.42364 -5.659184 -146.229512 15.47044 -142.746182 34.848841 74.529964 -0.598295 44.039331 64.187593 -46.709273 -170.281268 15.134273 -156.342882 98.175289 38.076318 128.421474 -12.522716 -40.620019 -3.806078 170.593171 -8.278114 -89.948327 15.342958 -43.628561 -4.700669 83.732663 42.330762 -69.990018 -3.122306 4.82872 4.015646 0.287809 0.832459 -0.161282 -80.538238 -78.004401 -52.071414 0.013711 -1.323031 0.416689 75.58055 78.819597 -89.088089 -12.251717 41.424949 -10.281713 151.072137 21.783874 145.561997 0.003018 0.000735 0.001509 25.544121 -53.090487 -41.953943 -87.689828 -1.087122 -2.993511 27.311276 -60.279231 111.253193 -0.0 -9.2e-05 -0.000979 54.405597 -42.139603 64.347529 169.503578 80.153911 13.942274 146.136374 8.539831 -170.304829
